<svg width="41" height="41" viewBox="0 0 41 41" fill="none" xmlns="http://www.w3.org/2000/svg">
<circle cx="20.5" cy="20.5" r="20.5" fill="white"/>
<path d="M32.2031 30H22.9688V28.8906C23.7812 28.8385 24.4531 28.7344 24.9844 28.5781C25.526 28.4219 25.7969 28.2292 25.7969 28C25.7969 27.9062 25.7865 27.7917 25.7656 27.6562C25.7448 27.5208 25.7135 27.401 25.6719 27.2969L23.8281 22.3281H16.0625C15.7708 23.0573 15.5312 23.6927 15.3438 24.2344C15.1667 24.776 15.0052 25.276 14.8594 25.7344C14.724 26.1823 14.6302 26.5469 14.5781 26.8281C14.526 27.1094 14.5 27.3385 14.5 27.5156C14.5 27.9323 14.8281 28.2552 15.4844 28.4844C16.1406 28.7135 16.8802 28.849 17.7031 28.8906V30H9.35938V28.8906C9.63021 28.8698 9.96875 28.8125 10.375 28.7188C10.7812 28.6146 11.1146 28.4792 11.375 28.3125C11.7917 28.0312 12.1146 27.7396 12.3438 27.4375C12.5729 27.125 12.7969 26.6979 13.0156 26.1562C14.1302 23.375 15.3594 20.25 16.7031 16.7812C18.0469 13.3125 19.2448 10.224 20.2969 7.51562H21.5469L28.9375 26.6406C29.0938 27.0469 29.2708 27.375 29.4688 27.625C29.6667 27.875 29.9427 28.1198 30.2969 28.3594C30.5365 28.5052 30.849 28.6302 31.2344 28.7344C31.6198 28.8281 31.9427 28.8802 32.2031 28.8906V30ZM23.2656 20.9375L19.9062 12.3438L16.6094 20.9375H23.2656Z" fill="black"/>
</svg>
