<svg width="128" height="46" viewBox="0 0 128 46" fill="none" xmlns="http://www.w3.org/2000/svg">
<path d="M29.6372 3.46751C28.9411 2.47924 27.8976 1.64924 27.043 0.794653C26.821 0.572617 26.3859 -0.0552784 26.021 0.0356903C25.6438 0.129716 25.2642 0.686752 24.999 0.95188L23.2695 2.68138C22.9068 3.04349 22.5317 3.46147 22.0117 3.58282C21.3868 3.72863 20.9323 3.32609 20.518 2.91692C19.8326 2.23993 19.1553 1.55449 18.4741 0.873267C18.2303 0.629456 17.7642 -0.0437675 17.3735 0.00233346C17.0443 0.0411751 16.7267 0.498058 16.5088 0.71604L14.622 2.60276C14.4045 2.82039 13.8825 3.18477 14.007 3.54613C14.1117 3.85005 14.4803 4.11189 14.7006 4.33226L16.2729 5.90453C16.9804 6.61207 17.6656 7.35813 18.5527 7.84534C20.6681 9.00725 23.3825 8.94341 25.3921 7.57537C26.041 7.13361 26.5692 6.53545 27.1216 5.98314L29.6372 3.46751Z" fill="#6AF5B6"/>
<path d="M4.32374 7.39816C4.41922 8.56707 4.90767 9.80547 5.22185 10.9358C5.35943 11.4307 5.64561 12.0688 5.53879 12.5867C5.43395 13.095 5.03689 13.5338 4.55958 13.7219C3.8866 13.987 3.13581 14.1224 2.43702 14.307C1.62653 14.5212 0.821283 14.7756 0 14.9451C0.0535185 16.1162 0.589054 17.3471 0.874693 18.4827C0.950351 18.7834 1.024 19.5558 1.30215 19.7312C1.4824 19.8449 1.78071 19.7193 1.96534 19.671C2.49007 19.5334 3.01576 19.3941 3.53761 19.246C5.79576 18.6051 7.99719 18.1873 9.43055 16.1243C10.2356 14.9656 10.7028 13.4523 10.6057 12.0364C10.5288 10.9116 10.1603 9.81482 9.86002 8.73459C9.62214 7.87881 9.47065 6.95714 9.11917 6.14035C8.31739 6.39672 7.49292 6.57731 6.68215 6.80262C5.91086 7.01696 5.11769 7.29125 4.32374 7.39816Z" fill="#FFDF6B"/>
<path d="M34.2755 6.14035C33.9715 7.21172 33.6899 8.2887 33.3988 9.3635C33.0514 10.6464 32.7394 11.8712 32.8739 13.2156C33.0816 15.2934 34.4655 17.2177 36.3194 18.147C37.299 18.638 38.4126 18.8404 39.4639 19.1234C40.3704 19.3675 41.3538 19.7761 42.294 19.8191C42.6332 18.1761 43.2127 16.5881 43.5518 14.9451C42.2171 14.7652 40.8377 14.272 39.5426 13.9002C38.9353 13.7258 38.3367 13.5352 38.0666 12.9011C37.823 12.3293 38.0745 11.7342 38.2161 11.1716C38.5262 9.93848 38.8409 8.68782 39.2281 7.47678C38.6442 7.2565 38.0209 7.13873 37.42 6.97173C36.3808 6.68293 35.3315 6.3589 34.2755 6.14035Z" fill="#FFAD80"/>
<path fill-rule="evenodd" clip-rule="evenodd" d="M14.9366 14.2074C16.7346 12.733 18.8124 12.1303 21.0685 11.8339C22.339 11.667 23.7873 11.911 24.9992 12.2993C26.6331 12.8228 28.1786 13.7362 29.3944 14.9522C33.1884 18.7463 33.4282 24.9651 30.2149 29.1741C29.4738 30.1448 28.5572 30.9871 27.5148 31.626C26.246 32.4037 24.8279 32.9619 23.3483 33.1613C21.9353 33.3516 20.4897 33.3024 19.1032 32.9558C14.1726 31.7235 10.7877 27.076 11.009 22.0203C11.0795 20.4102 11.5637 18.8895 12.2833 17.4607C12.9133 16.2097 13.8552 15.0942 14.9366 14.2074ZM16.8599 19.5834C17.8684 17.9276 19.5227 17.1118 21.383 16.8652C24.8864 16.4009 27.7526 19.9019 27.4228 23.1996C27.1602 25.8266 24.9857 27.8914 22.405 28.2084C21.7357 28.2905 21.0149 28.2412 20.361 28.0816C16.6803 27.1832 14.8946 22.8097 16.8599 19.5834Z" fill="white"/>
<path d="M4.3238 37.6644C5.15161 37.9291 6.00362 38.1119 6.83943 38.3492C7.59965 38.565 8.40879 38.8578 9.19784 38.9223C9.81951 35.9102 11.4345 32.9072 9.96361 29.8817C9.73131 29.4039 9.44154 28.9494 9.09564 28.5453C7.57962 26.774 5.44108 26.3851 3.30182 25.8057C2.80509 25.6712 2.30963 25.5275 1.80823 25.411C1.59931 25.3625 1.36392 25.2937 1.22397 25.5047C0.932696 25.9437 0.867289 26.701 0.736694 27.2089C0.567775 27.8657 0.384201 28.5207 0.202535 29.1742C0.136233 29.4127 -0.0376243 29.7689 0.0545888 30.017C0.189165 30.3792 1.16054 30.4633 1.49371 30.5559C2.25153 30.7665 3.01237 30.9705 3.7735 31.1687C4.40112 31.3321 5.02046 31.4831 5.37422 32.0841C5.73379 32.6949 5.44743 33.3472 5.27905 33.9696C4.95285 35.1755 4.49049 36.4266 4.3238 37.6644Z" fill="#67DCEC"/>
<path d="M43.5519 30.1175C43.1858 28.5209 42.5324 26.9422 42.294 25.3221C41.3902 25.3409 40.4921 25.722 39.6212 25.941C38.5259 26.2165 37.3342 26.4505 36.3194 26.9579C34.589 27.8232 33.3558 29.493 32.9556 31.3753C32.5439 33.312 33.2452 35.2672 33.7585 37.1141C33.8819 37.5579 33.9823 38.0104 34.1186 38.4501C34.1751 38.6324 34.2292 38.8472 34.444 38.8899C34.9431 38.989 35.7551 38.5938 36.2408 38.4624C36.9208 38.2784 37.6071 38.1154 38.2848 37.923C38.5078 37.8597 38.9246 37.8242 39.0676 37.62C39.2805 37.316 38.9119 36.4987 38.8232 36.1707C38.5822 35.2798 38.321 34.3936 38.0982 33.4979C37.9807 33.0254 37.8594 32.5298 38.1282 32.0829C38.5003 31.4643 39.1394 31.3436 39.7784 31.1623C41.0237 30.8088 42.3411 30.5743 43.5519 30.1175Z" fill="#FF748F"/>
<path d="M17.3736 45.2113C18.4494 44.4535 19.3497 43.3093 20.2823 42.3813C20.731 41.9348 21.3128 41.3529 22.0118 41.5139C22.5069 41.6279 22.8473 42.0377 23.191 42.3812L24.9991 44.1893C25.2434 44.4336 25.7819 45.2043 26.1783 45.1055C26.3655 45.0589 26.5187 44.8679 26.65 44.7392C26.9676 44.4282 27.279 44.1106 27.5934 43.7963L29.087 42.3026C29.2448 42.1436 29.5424 41.9229 29.5424 41.6737C29.5424 41.2898 28.864 40.8218 28.6154 40.5731C27.6336 39.5914 26.6897 38.4411 25.5494 37.6425C23.5122 36.2156 20.7312 36.0152 18.5528 37.2613C17.6048 37.8036 16.88 38.6297 16.1158 39.3939L14.5435 40.9662C14.3689 41.1412 14.0095 41.3983 14.0095 41.6737C14.0095 42.038 14.6233 42.461 14.858 42.6957L17.3736 45.2113Z" fill="#6E5BCD"/>
<path d="M72.3554 31.1043C69.8634 33.5728 66.8307 34.807 63.2572 34.807C59.6838 34.807 56.6511 33.5728 54.1591 31.1043C51.6907 28.5888 50.4564 25.5444 50.4564 21.971C50.4564 18.374 51.6907 15.3413 54.1591 12.8728C56.6511 10.3809 59.6838 9.13487 63.2572 9.13487C66.8307 9.13487 69.8634 10.3809 72.3554 12.8728C74.8473 15.3413 76.0933 18.374 76.0933 21.971C76.0933 25.5679 74.8473 28.6123 72.3554 31.1043ZM57.5797 27.7895C59.0843 29.2941 60.9768 30.0464 63.2572 30.0464C65.5377 30.0464 67.4302 29.2941 68.9347 27.7895C70.4629 26.2614 71.2269 24.3219 71.2269 21.971C71.2269 19.62 70.4629 17.6805 68.9347 16.1524C67.4066 14.6243 65.5141 13.8602 63.2572 13.8602C61.0004 13.8602 59.1079 14.6243 57.5797 16.1524C56.0516 17.6805 55.2876 19.62 55.2876 21.971C55.2876 24.3219 56.0516 26.2614 57.5797 27.7895Z" fill="white"/>
<path d="M89.5639 16.1877C91.9383 16.1877 93.9601 17.0928 95.6293 18.903C97.322 20.7132 98.1683 22.9113 98.1683 25.4974C98.1683 28.1304 97.322 30.3403 95.6293 32.127C93.9837 33.9137 91.9619 34.807 89.5639 34.807C87.0954 34.807 85.1912 33.949 83.8511 32.2328V41.3661H79.3021V16.6814H83.8511V18.7619C85.1912 17.0458 87.0954 16.1877 89.5639 16.1877ZM85.2264 29.0943C86.1433 30.0111 87.307 30.4696 88.7176 30.4696C90.1281 30.4696 91.2918 30.0111 92.2087 29.0943C93.1491 28.1539 93.6193 26.9549 93.6193 25.4974C93.6193 24.0398 93.1491 22.8526 92.2087 21.9357C91.2918 20.9953 90.1281 20.5251 88.7176 20.5251C87.307 20.5251 86.1433 20.9953 85.2264 21.9357C84.3096 22.8526 83.8511 24.0398 83.8511 25.4974C83.8511 26.9549 84.3096 28.1539 85.2264 29.0943Z" fill="white"/>
<path d="M114.777 18.7619V16.6814H119.326V34.3133H114.777V32.2328C113.413 33.949 111.497 34.807 109.029 34.807C106.678 34.807 104.656 33.9137 102.963 32.127C101.294 30.3168 100.46 28.1069 100.46 25.4974C100.46 22.9113 101.294 20.7132 102.963 18.903C104.656 17.0928 106.678 16.1877 109.029 16.1877C111.497 16.1877 113.413 17.0458 114.777 18.7619ZM106.384 29.0943C107.301 30.0111 108.465 30.4696 109.875 30.4696C111.286 30.4696 112.449 30.0111 113.366 29.0943C114.307 28.1539 114.777 26.9549 114.777 25.4974C114.777 24.0398 114.307 22.8526 113.366 21.9357C112.449 20.9953 111.286 20.5251 109.875 20.5251C108.465 20.5251 107.301 20.9953 106.384 21.9357C105.467 22.8526 105.009 24.0398 105.009 25.4974C105.009 26.9549 105.467 28.1539 106.384 29.0943Z" fill="white"/>
<path d="M128 34.3133H123.451V8.57064H128V34.3133Z" fill="white"/>
</svg>
